<?xml version="1.0" encoding="UTF-8"?>
<svg id="Layer_1" data-name="Layer 1" xmlns="http://www.w3.org/2000/svg" viewBox="0 0 1218.9 1332.28">
  <defs>
    <style>
      .cls-1 {
        fill: #da3f27;
      }

      .cls-2 {
        fill: #db3f26;
      }

      .cls-3 {
        fill: #7e9971;
      }

      .cls-4 {
        fill: #3b5a41;
      }

      .cls-5 {
        fill: #dce024;
      }
    </style>
  </defs>
  <path class="cls-4" d="M708.47,1166.5c-2.07,41.24-17.3,78.46-60.4,89.97-24.44,6.52-50.26,6.48-74.83.25s-44.28-23.7-53.16-47.81c-4.71-12.79-7.09-25.59-7.97-39.37-2.51-39.31,6.3-89.26,15.25-128.02l18.02-78.04c4.47-19.37,8.29-37.97,10.42-57.64,1.76-16.21,3.76-45.98-10.92-56.84-33.84-25.02-91.52-2.52-127.85,8.98-29.15,9.23-62.96,19.98-93.6,15.25-23.86-3.68-45.57-12.09-67.18-22.72-47.24-24.3-92.99-63.37-121.79-108.98,22.73-4.35,45.47.28,65.25,12,13.2,7.83,25.62,15.34,39.32,22.39l39.09,20.14c42.48,21.89,97.97,20.66,136.32-9.18,4.97-3.87,7.98-10.31,5.47-15.95-3.49-7.83-12.5-10.24-20.57-8.23-16.17,4.03-37.37,20.41-69.88,22.55-18.89,1.25-36.88-4.28-50.41-17.28-8.21-7.89-13.76-17.75-14.54-29.24,34.36,17.74,69.17,2.1,101.83-10.12,61.83-26.11,133.78-14.28,183.71,30.52,34.56,31.61,54.78,74.33,60.1,121.09,5.97-47.13,25.54-89.42,60.09-120.79,48.94-44.45,119.99-56.52,181.21-31.98,10.93,4.38,21.04,8.15,32.12,11.95,48.87,16.72,69.95-.76,71.93-.13.24.08.49.56.41,1.23-1.12,8.9-4.93,16.9-10.92,23.72-13.04,14.84-31.82,22.03-51.65,21.16-43.9-1.91-67.79-30.34-85.56-21.67-4.31,2.1-7.41,5.57-7.98,9.93s1.45,9.21,5.37,12.42c37.2,30.52,94.61,32,136.79,10.21l35.82-18.5c15.23-7.31,28.83-15.78,43.32-24.38,19.49-11.58,42.08-16.23,64.98-11.81-38.83,61.92-118.12,120.9-189.74,131.8-33.13,5.04-73.03-9.12-104.52-19.15-34.03-10.84-83.53-27.97-115.55-5.78-6.33,4.39-9.39,11.77-11.04,19.14-4.62,20.65,1.22,56.97,6.05,78.13l16.17,70.83c10.7,46.87,23.48,102.14,21.08,149.95Z"/>
  <path class="cls-3" d="M612.29,728.67c-9.75,2.17-19.57-2.81-27.24-7.76-10.29-6.65-17.51-16.01-23.53-26.58-17.41-30.53-28.4-67.12-25.97-102.84,1.16-16.97,6.17-32.65,12.17-48.51,13.43-35.46,35.97-57.63,66.51-79.99l21.17,22.63c12.22,13.07,22.62,26.69,31.63,42.3,24.33,46.75,23.24,96.14,2.81,144.21-6.26,14.72-14.81,27.63-26.5,38.44-8.7,8.04-18.8,15.38-31.05,18.1Z"/>
  <path class="cls-3" d="M260.04,681.86c-14.53,13.45-33.98,18.15-53.17,19.24-19.47,1.11-37.93-3.62-56.36-9.62-47.03-15.31-83.52-50.72-99.59-97.47-6.15-17.9-10.8-35.44-15-54.42,40.7-15.77,71.98-21.39,114.5-10.02,49.8,10.37,88.24,50.05,110.06,94.02,5.07,10.21,8.09,20.53,8.06,32.11-.02,8.67-1.35,19.55-8.5,26.16Z"/>
  <path class="cls-3" d="M1035.51,699.67c-24.76,4.2-51.08.32-71.94-13.38-17.74-11.65-15.35-40.71-7.48-58.01,17.98-39.51,51.78-78.24,93.65-93.21,18.13-6.48,36.4-10.17,55.51-11.48,28.14-.96,51.18,5.98,77.58,16.02-4.5,19.86-9.3,38.4-16.16,57.24-21.49,58.97-70.57,92.52-131.16,102.81Z"/>
  <path class="cls-2" d="M644.11,317.73c-9.3,8.65-19.54,16.23-31.79,18.75-10.13,2.08-20.47-2.75-28.53-8.48-9.48-6.74-16.5-15.57-22.25-25.71-24.27-42.78-35.78-95.24-16.98-142.54,13.08-40.44,35.78-64.17,69.67-88.83,20.66,21.68,38.99,40.59,53.59,66.34,12.92,25.92,19.44,54.59,16.9,83.65-2.87,32.89-15.38,73.37-40.61,96.83Z"/>
  <path class="cls-3" d="M458.15,653.37c-41.17,21.04-88.01,2.35-123.15-22.74-29.14-20.81-50.3-51.39-59.26-86.23-5.13-19.93-5.95-39.48-6.74-59.79-.24-6.09-1.12-11.61-.28-17.99,46.03-6.82,72.18-5.55,113.98,14.47,44.51,21.31,69.93,59.31,84.79,105.33,7.15,22.14,9.15,49.86-9.34,66.95Z"/>
  <path class="cls-3" d="M883.6,630.71c-35.31,25.06-80.18,42.97-122.01,23.53-36.18-30.55-.27-102.52,22.51-131.76,14.13-18.13,31.36-31.45,51.81-41.35,41.46-20.08,68.62-21.16,114.16-14.53-.24,24.85-.95,54.19-7.09,77.85-9.03,34.8-30.14,65.52-59.38,86.26Z"/>
  <path class="cls-5" d="M350.61,330.05c0,12.4-2.16,23.44-8.67,33.13-4.69,6.98-11.16,11.69-19.9,12.14-16.3.83-31.98-3.61-45.94-12.84-37.86-25.02-63.3-66.26-60.46-112.91,1.18-19.32,6.31-37.24,10.7-55.69,4.18-.89,7.11.29,10.83.91,15.92,2.67,31.42,6.44,45.72,14.38,20.85,11.58,42.1,31.07,52.83,52.81s14.91,43.84,14.9,68.08Z"/>
  <path class="cls-5" d="M711.93,462.98c-8.83-1.06-15.1-9.36-18.93-15.94-6.66-11.45-7.75-23.6-7.89-36.43-.4-38.09,8.81-70.15,36.23-96.99,10.62-10.39,21.39-19.73,35.15-25.86,13.44-5.99,26.88-10.37,42.27-12.69,6.22,15.96,11.86,31.86,14.26,48.7l2.26,15.83c.51,27.66-7.03,54.35-23.29,76.59-9.87,13.5-20.46,25.48-34.7,34.4-13.31,8.34-28.86,14.37-45.37,12.39Z"/>
  <path class="cls-5" d="M937.43,365.5c-14.95,8.07-43.02,16.76-56.68,2.46-6.74-7.06-10.91-16.68-11.89-26.85-2.18-22.65.92-44.95,8.55-66.3,7.18-20.08,19.48-35.96,35.52-49.64,24.97-21.3,45.51-27.33,79.16-31.87,4.58,18.64,9.82,36.79,10.96,56.24,1.9,32.23-9.59,63.1-30.76,86.84-10.42,11.68-21.14,21.73-34.85,29.13Z"/>
  <path class="cls-5" d="M525.15,447.97c-3.95,6.4-10.23,14.04-17.99,14.99-17.62,2.15-34.66-4.45-48.83-14.37-12.61-8.83-22.01-19.57-31.24-31.84-14.08-18.72-21.4-40.91-23.39-64.39-1.62-26.28,7.3-51.55,16.06-77.21,18.71,2.87,36.54,8.68,52.79,18.25,9.42,5.55,16.93,12.83,24.7,20.31,27.85,26.83,36.97,59.66,36.28,97.84-.23,12.8-1.26,24.89-8.38,36.42Z"/>
  <path class="cls-5" d="M1085.84,475.81c-14.1,3.87-40.15,3.07-53.1-6.69-10-7.53-11.14-28.13-9.01-37.4,5.61-24.44,17.45-47.08,33.68-65.82,10.83-12.5,23.32-20.61,37.96-27.56,30.27-14.38,58.19-16.17,90.75-8.27,1.3,4.7-.59,9.65-.53,14.46.09,7.42-1.12,13.83-1.91,21.15-6.1,56.58-44.3,95.43-97.84,110.13Z"/>
  <path class="cls-5" d="M186.25,468.85c-14.09,11-41.21,10.66-57.07,5.98-8.58-2.53-16.42-5.97-24.41-9.81-39.59-19.02-65.82-56.24-69.79-100.05-.98-10.85-3.33-23.29-2.47-35.23,37.09-6.97,56.62-6.5,90.83,8.67,14.97,6.64,27.35,15.48,38.36,28.08,16.12,18.45,27.69,41.07,33.26,65.15,2.03,8.75,1.16,29.5-8.71,37.2Z"/>
  <path class="cls-1" d="M764.88,216.3c-27.37-12.21-19.41-61.82-11.46-83.64,4.49-12.33,11.85-22.01,20.8-31.18,18.56-19,36.55-26.12,62.32-30.52,3.64,10.45,6.31,20.11,8.9,30.6,7.23,29.25.37,59.31-18.56,82.62-15.32,18.87-35.15,35.07-62,32.13Z"/>
  <path class="cls-1" d="M465.51,133.33c7.82,21.97,15.36,70.65-11.38,82.82-26.13,3.45-45.79-12.15-61.43-30.89-19.37-23.24-26.73-53.37-19.65-82.9,2.57-10.71,5.36-20.74,9.03-31.11,24.35,3.1,44.46,11.91,61.86,29.7,9.33,9.53,17,19.57,21.56,32.38Z"/>
</svg>